{"glyphs":{"0":{"ha":956,"x_min":0,"x_max":0,"o":"m 478 -22 b 70 504 223 -22 69 172 b 478 1024 71 835 224 1024 b 886 504 731 1024 886 835 b 478 -22 885 171 732 -22 m 478 155 b 668 504 593 155 668 271 b 478 849 668 733 593 849 b 288 504 363 849 288 733 b 478 155 287 271 362 155 "},"1":{"ha":680,"x_min":0,"x_max":0,"o":"m 521 0 l 308 0 l 308 807 l 302 807 l 71 662 l 71 852 l 321 1010 l 521 1010 "},"2":{"ha":875,"x_min":0,"x_max":0,"o":"m 82 154 l 441 487 b 582 711 533 575 582 630 b 428 855 582 799 516 855 b 275 699 335 855 274 796 l 72 699 b 429 1024 72 897 217 1024 b 789 725 646 1024 789 900 b 525 326 789 610 733 515 l 378 182 l 378 175 l 802 175 l 802 0 l 82 0 "},"3":{"ha":916,"x_min":0,"x_max":0,"o":"m 455 -14 b 72 286 233 -14 75 109 l 287 286 b 456 162 291 212 362 162 b 622 298 553 162 622 218 b 436 436 622 379 551 436 l 342 436 l 342 593 l 436 593 b 601 727 534 593 601 647 b 457 855 601 802 544 855 b 297 728 370 855 299 805 l 92 728 b 458 1024 95 903 251 1024 b 806 739 667 1024 807 899 b 616 526 807 626 729 546 l 616 518 b 844 284 764 499 844 409 b 455 -14 844 111 682 -14 "},"4":{"ha":942,"x_min":0,"x_max":0,"o":"m 67 346 l 488 1010 l 756 1010 l 756 349 l 881 349 l 881 178 l 756 178 l 756 0 l 551 0 l 551 178 l 67 178 m 555 777 l 547 777 l 282 357 l 282 349 l 555 349 "},"5":{"ha":895,"x_min":0,"x_max":0,"o":"m 451 -14 b 85 286 242 -14 89 111 l 292 286 b 451 154 297 207 366 154 b 622 331 551 154 622 226 b 448 511 622 437 549 511 b 297 443 388 511 328 485 l 107 477 l 155 1010 l 772 1010 l 772 836 l 331 836 l 305 582 l 311 582 b 511 669 346 632 423 669 b 828 337 693 669 829 530 b 451 -14 829 133 676 -14 "},"6":{"ha":917,"x_min":0,"x_max":0,"o":"m 470 -14 b 66 482 262 -13 66 112 b 477 1024 67 822 227 1024 b 837 728 679 1024 817 894 l 626 728 b 477 841 610 799 554 841 b 275 522 345 841 276 719 l 282 522 b 537 664 327 611 426 664 b 847 338 716 664 848 528 b 470 -14 848 133 694 -15 m 469 154 b 640 332 567 154 641 231 b 470 510 641 433 569 510 b 297 332 372 510 297 430 b 469 154 297 233 370 154 "},"7":{"ha":826,"x_min":0,"x_max":0,"o":"m 541 829 l 541 836 l 53 836 l 53 1010 l 762 1010 l 762 833 l 342 0 l 122 0 "},"8":{"ha":918,"x_min":0,"x_max":0,"o":"m 459 -14 b 67 272 231 -14 67 108 b 286 521 67 398 163 501 l 286 528 b 105 752 179 550 104 642 b 459 1024 104 908 254 1024 b 813 752 663 1024 813 908 b 632 528 813 641 737 550 l 632 521 b 851 272 753 501 850 398 b 459 -14 850 108 687 -14 m 459 143 b 628 289 560 143 628 203 b 459 439 628 376 556 439 b 289 289 361 439 289 376 b 459 143 289 203 357 143 m 459 594 b 605 730 544 594 605 650 b 459 863 605 808 545 863 b 313 730 372 863 313 809 b 459 594 313 650 373 594 "},"9":{"ha":917,"x_min":0,"x_max":0,"o":"m 447 1024 b 851 531 655 1023 850 897 b 440 -14 851 188 690 -14 b 80 285 238 -14 100 115 l 291 285 b 440 169 307 212 363 169 b 642 491 572 169 641 291 l 635 491 b 380 349 590 402 491 349 b 70 674 201 349 71 485 b 447 1024 69 877 221 1025 m 449 856 b 277 680 350 856 276 778 b 447 504 278 581 348 504 b 620 680 545 504 621 583 b 449 856 619 776 547 856 "},"A":{"ha":1039,"x_min":0,"x_max":0,"o":"m 33 0 l 382 1010 l 657 1010 l 1005 0 l 776 0 l 701 230 l 337 230 l 262 0 m 648 397 l 523 779 l 515 779 l 391 397 "},"Ä":{"ha":1039,"x_min":0,"x_max":0,"o":"m 33 0 l 382 1010 l 657 1010 l 1005 0 l 776 0 l 701 230 l 337 230 l 262 0 m 648 397 l 523 779 l 515 779 l 391 397 m 369 1114 b 265 1214 312 1114 265 1160 b 369 1314 265 1270 312 1314 b 472 1214 426 1314 472 1270 b 369 1114 472 1160 426 1114 m 671 1114 b 567 1214 614 1114 567 1160 b 671 1314 567 1270 614 1314 b 773 1214 728 1314 773 1270 b 671 1114 773 1160 728 1114 "},"B":{"ha":918,"x_min":0,"x_max":0,"o":"m 88 1010 l 492 1010 b 828 751 715 1010 828 903 b 645 534 828 632 750 558 l 645 524 b 867 279 760 519 867 429 b 519 0 867 118 746 0 l 88 0 m 475 175 b 647 300 595 175 647 224 b 480 443 647 384 583 443 l 301 443 l 301 175 m 460 587 b 612 716 547 587 612 636 b 464 837 612 789 558 837 l 301 837 l 301 587 "},"C":{"ha":1045,"x_min":0,"x_max":0,"o":"m 763 656 b 545 835 747 767 662 835 b 287 505 389 835 287 715 b 544 175 287 289 391 175 b 763 345 658 175 743 237 l 979 344 b 541 -14 956 158 799 -14 b 70 505 270 -14 70 176 b 541 1024 70 836 274 1024 b 979 656 774 1024 951 890 "},"D":{"ha":1010,"x_min":0,"x_max":0,"o":"m 88 0 l 88 1010 l 449 1010 b 940 506 754 1010 940 821 b 446 0 940 190 754 0 m 437 183 b 727 506 627 183 727 281 b 437 827 727 730 627 827 l 301 827 l 301 183 "},"E":{"ha":851,"x_min":0,"x_max":0,"o":"m 88 1010 l 768 1010 l 768 834 l 301 834 l 301 593 l 733 593 l 733 417 l 301 417 l 301 176 l 770 176 l 770 0 l 88 0 "},"F":{"ha":812,"x_min":0,"x_max":0,"o":"m 88 1010 l 757 1010 l 757 834 l 301 834 l 301 593 l 712 593 l 712 417 l 301 417 l 301 0 l 88 0 "},"G":{"ha":1056,"x_min":0,"x_max":0,"o":"m 758 684 b 546 835 730 778 656 835 b 287 506 392 835 287 716 b 548 175 287 295 388 175 b 778 380 690 175 775 254 l 561 380 l 561 541 l 984 541 l 984 413 b 547 -14 984 147 802 -14 b 70 504 262 -14 70 184 b 543 1024 70 832 276 1024 b 975 684 771 1024 947 883 l 758 684 "},"H":{"ha":1036,"x_min":0,"x_max":0,"o":"m 88 1010 l 301 1010 l 301 593 l 735 593 l 735 1010 l 948 1010 l 948 0 l 735 0 l 735 417 l 301 417 l 301 0 l 88 0 "},"I":{"ha":390,"x_min":0,"x_max":0,"o":"m 301 0 l 88 0 l 88 1010 l 301 1010 "},"J":{"ha":792,"x_min":0,"x_max":0,"o":"m 703 1010 l 703 306 b 359 -14 703 110 563 -14 b 33 284 176 -14 32 82 l 245 284 b 369 157 247 204 295 157 b 492 306 448 157 492 209 l 492 1010 "},"K":{"ha":958,"x_min":0,"x_max":0,"o":"m 88 1010 l 301 1010 l 301 565 l 315 565 l 678 1010 l 934 1010 l 559 558 l 939 0 l 683 0 l 406 415 l 301 287 l 301 0 l 88 0 "},"L":{"ha":788,"x_min":0,"x_max":0,"o":"m 88 1010 l 301 1010 l 301 176 l 734 176 l 734 0 l 88 0 "},"M":{"ha":1271,"x_min":0,"x_max":0,"o":"m 351 1010 l 629 331 l 641 331 l 919 1010 l 1183 1010 l 1183 0 l 976 0 l 976 657 l 967 657 l 706 5 l 565 5 l 303 660 l 295 660 l 295 0 l 88 0 l 88 1010 "},"N":{"ha":1021,"x_min":0,"x_max":0,"o":"m 933 0 l 748 0 l 309 636 l 301 636 l 301 0 l 88 0 l 88 1010 l 275 1010 l 711 375 l 720 375 l 720 1010 l 933 1010 "},"O":{"ha":1086,"x_min":0,"x_max":0,"o":"m 1016 505 b 543 -14 1016 175 811 -14 b 70 505 274 -14 70 176 b 543 1024 70 836 274 1024 b 1016 505 811 1024 1016 836 m 799 505 b 543 835 799 719 698 835 b 287 505 388 835 287 719 b 543 175 287 291 388 175 b 799 505 698 175 799 291 "},"Ö":{"ha":1086,"x_min":0,"x_max":0,"o":"m 1016 505 b 543 -14 1016 175 811 -14 b 70 505 274 -14 70 176 b 543 1024 70 836 274 1024 b 1016 505 811 1024 1016 836 m 799 505 b 543 835 799 719 698 835 b 287 505 388 835 287 719 b 543 175 287 291 388 175 b 799 505 698 175 799 291 m 393 1114 b 289 1214 336 1114 289 1160 b 393 1314 289 1270 336 1314 b 495 1214 450 1314 495 1270 b 393 1114 495 1160 450 1114 m 694 1114 b 591 1214 638 1114 591 1160 b 694 1314 591 1270 638 1314 b 797 1214 752 1314 797 1270 b 694 1114 797 1160 752 1114 "},"P":{"ha":900,"x_min":0,"x_max":0,"o":"m 88 1010 l 486 1010 b 848 668 716 1010 848 869 b 481 327 848 466 713 327 l 301 327 l 301 0 l 88 0 m 446 499 b 628 668 569 499 628 568 b 445 836 628 768 569 836 l 301 836 l 301 499 "},"Q":{"ha":1087,"x_min":0,"x_max":0,"o":"m 1016 505 b 856 99 1016 325 955 187 l 1001 -83 l 801 -83 l 720 17 b 543 -14 666 -3 606 -14 b 70 505 274 -14 70 176 b 543 1024 70 836 274 1024 b 1016 505 811 1024 1016 836 m 651 351 l 726 255 b 799 505 772 311 799 395 b 543 835 799 719 698 835 b 287 505 388 835 287 719 b 543 175 287 291 388 175 b 598 181 562 175 581 177 l 469 351 "},"R":{"ha":911,"x_min":0,"x_max":0,"o":"m 88 1010 l 486 1010 b 848 680 716 1010 848 881 b 670 393 848 542 785 442 l 884 0 l 649 0 l 457 358 l 301 358 l 301 0 l 88 0 m 446 530 b 628 680 569 530 628 580 b 445 836 628 781 569 836 l 301 836 l 301 530 "},"S":{"ha":909,"x_min":0,"x_max":0,"o":"m 636 720 b 463 845 628 799 565 845 b 301 732 359 845 301 798 b 461 607 299 660 373 627 l 551 585 b 854 289 727 546 854 457 b 462 -14 854 104 709 -14 b 55 317 217 -14 61 99 l 262 317 b 460 165 269 216 349 165 b 639 289 568 165 638 215 b 467 415 638 357 577 389 l 357 443 b 82 718 186 484 81 569 b 465 1024 81 902 243 1024 b 840 720 690 1024 837 900 l 636 720 "},"T":{"ha":928,"x_min":0,"x_max":0,"o":"m 49 1010 l 879 1010 l 879 834 l 570 834 l 570 0 l 359 0 l 359 834 l 49 834 "},"U":{"ha":1013,"x_min":0,"x_max":0,"o":"m 925 1010 l 925 354 b 507 -14 925 133 758 -14 b 88 354 254 -14 88 133 l 88 1010 l 301 1010 l 301 372 b 507 174 301 257 383 174 b 712 372 631 174 712 257 l 712 1010 "},"Ü":{"ha":1013,"x_min":0,"x_max":0,"o":"m 925 1010 l 925 354 b 507 -14 925 133 758 -14 b 88 354 254 -14 88 133 l 88 1010 l 301 1010 l 301 372 b 507 174 301 257 383 174 b 712 372 631 174 712 257 l 712 1010 m 356 1114 b 253 1214 299 1114 253 1160 b 356 1314 253 1270 299 1314 b 459 1214 413 1314 459 1270 b 356 1114 459 1160 413 1114 m 658 1114 b 554 1214 601 1114 554 1160 b 658 1314 554 1270 601 1314 b 761 1214 715 1314 761 1270 b 658 1114 761 1160 715 1114 "},"V":{"ha":1039,"x_min":0,"x_max":0,"o":"m 514 243 l 524 243 l 768 1010 l 1005 1010 l 657 0 l 382 0 l 33 1010 l 270 1010 "},"W":{"ha":1439,"x_min":0,"x_max":0,"o":"m 26 1010 l 259 1010 l 427 308 l 435 308 l 619 1010 l 819 1010 l 1003 307 l 1012 307 l 1179 1010 l 1413 1010 l 1124 0 l 915 0 l 723 660 l 715 660 l 523 0 l 315 0 "},"X":{"ha":992,"x_min":0,"x_max":0,"o":"m 492 666 l 500 666 l 704 1010 l 945 1010 l 637 505 l 952 0 l 707 0 l 500 345 l 492 345 l 285 0 l 40 0 l 356 505 l 46 1010 l 288 1010 "},"Y":{"ha":1006,"x_min":0,"x_max":0,"o":"m 268 1010 l 498 575 l 508 575 l 738 1010 l 978 1010 l 609 357 l 609 0 l 397 0 l 397 357 l 29 1010 "},"Z":{"ha":926,"x_min":0,"x_max":0,"o":"m 77 127 l 581 834 l 76 834 l 76 1010 l 849 1010 l 849 883 l 345 176 l 850 176 l 850 0 l 77 0 "},"a":{"ha":806,"x_min":0,"x_max":0,"o":"m 300 -14 b 48 212 155 -14 48 62 b 333 445 48 381 183 431 b 516 513 465 458 516 464 l 516 516 b 404 614 516 578 475 614 b 269 527 328 614 284 577 l 75 543 b 405 767 104 681 223 767 b 727 511 574 767 727 691 l 727 0 l 527 0 l 527 105 l 521 105 b 300 -14 484 35 412 -14 m 360 131 b 518 271 452 131 518 191 l 518 351 b 372 317 493 334 418 324 b 249 218 298 307 249 278 b 360 131 249 161 295 131 "},"ä":{"ha":806,"x_min":0,"x_max":0,"o":"m 300 -14 b 48 212 155 -14 48 62 b 333 445 48 381 183 431 b 516 513 465 458 516 464 l 516 516 b 404 614 516 578 475 614 b 269 527 328 614 284 577 l 75 543 b 405 767 104 681 223 767 b 727 511 574 767 727 691 l 727 0 l 527 0 l 527 105 l 521 105 b 300 -14 484 35 412 -14 m 360 131 b 518 271 452 131 518 191 l 518 351 b 372 317 493 334 418 324 b 249 218 298 307 249 278 b 360 131 249 161 295 131 m 262 861 b 159 962 206 861 159 907 b 262 1062 159 1017 206 1062 b 365 962 320 1062 365 1017 b 262 861 365 907 320 861 m 564 861 b 461 962 508 861 461 907 b 564 1062 461 1017 508 1062 b 667 962 621 1062 667 1017 b 564 861 667 907 621 861 "},"b":{"ha":882,"x_min":0,"x_max":0,"o":"m 88 1010 l 298 1010 l 298 630 l 304 630 b 520 767 332 692 393 767 b 827 378 686 767 827 638 b 519 -12 827 124 692 -12 b 304 121 397 -12 333 58 l 295 121 l 295 0 l 88 0 m 293 379 b 453 155 293 244 352 155 b 612 379 556 155 612 247 b 453 600 612 510 557 600 b 293 379 351 600 293 514 "},"c":{"ha":816,"x_min":0,"x_max":0,"o":"m 426 -15 b 53 376 193 -15 53 145 b 425 767 53 608 195 767 b 764 477 623 767 756 653 l 566 477 b 429 604 555 553 506 604 b 267 379 331 604 267 522 b 429 151 267 234 330 151 b 566 278 501 151 554 197 l 764 278 b 426 -15 755 104 628 -15 "},"ç":{"ha":816,"x_min":0,"x_max":0,"o":"m 466 -39 b 581 -159 533 -49 581 -90 b 321 -320 582 -257 486 -320 l 319 -226 b 453 -164 402 -226 452 -206 b 355 -96 455 -124 423 -105 l 373 -12 b 53 376 172 11 53 163 b 425 767 53 608 195 767 b 764 477 623 767 756 653 l 566 477 b 429 604 555 553 506 604 b 267 379 331 604 267 522 b 429 151 267 234 330 151 b 566 278 501 151 554 197 l 764 278 b 471 -13 756 117 646 3 "},"d":{"ha":882,"x_min":0,"x_max":0,"o":"m 363 -12 b 56 378 190 -12 56 124 b 363 767 56 638 196 767 b 578 630 489 767 550 692 l 584 630 l 584 1010 l 794 1010 l 794 0 l 587 0 l 587 121 l 578 121 b 363 -12 549 58 485 -12 m 430 155 b 589 379 531 155 589 244 b 430 600 589 514 532 600 b 270 379 326 600 270 510 b 430 155 270 247 327 155 "},"e":{"ha":830,"x_min":0,"x_max":0,"o":"m 429 -15 b 53 375 196 -15 53 135 b 421 767 53 609 198 767 b 777 383 621 767 777 640 l 777 325 l 261 325 l 261 325 b 433 142 261 212 327 142 b 578 230 503 142 557 172 l 772 217 b 429 -15 743 76 617 -15 m 579 455 b 424 611 579 545 515 611 b 261 455 331 611 265 542 "},"f":{"ha":536,"x_min":0,"x_max":0,"o":"m 491 600 l 341 600 l 341 0 l 131 0 l 131 600 l 24 600 l 24 758 l 131 758 l 131 812 b 379 1057 131 977 237 1057 b 528 1037 444 1057 502 1045 l 491 879 b 423 890 474 884 448 890 b 341 808 362 890 341 860 l 341 758 l 491 758 "},"g":{"ha":879,"x_min":0,"x_max":0,"o":"m 425 -300 b 79 -89 221 -300 104 -208 l 273 -63 b 430 -149 291 -109 337 -149 b 588 -4 521 -149 588 -109 l 588 134 l 579 134 b 363 11 551 72 484 11 b 56 380 192 11 56 128 b 363 767 56 638 196 767 b 579 630 489 767 551 692 l 587 630 l 587 758 l 796 758 l 796 -7 b 425 -300 796 -201 642 -300 m 430 169 b 589 381 531 169 589 248 b 430 600 589 514 532 600 b 270 381 326 600 270 510 b 430 169 270 251 327 169 "},"h":{"ha":867,"x_min":0,"x_max":0,"o":"m 294 0 l 84 0 l 84 1010 l 288 1010 l 288 624 l 297 624 b 523 767 331 713 408 767 b 785 482 681 767 786 660 l 785 0 l 575 0 l 575 445 b 440 593 576 538 525 593 b 294 438 354 593 294 536 "},"i":{"ha":378,"x_min":0,"x_max":0,"o":"m 84 758 l 294 758 l 294 0 l 84 0 m 189 855 b 76 962 127 855 76 903 b 189 1068 76 1020 127 1068 b 303 962 252 1068 303 1020 b 189 855 303 903 252 855 "},"j":{"ha":378,"x_min":0,"x_max":0,"o":"m 294 758 l 294 -37 b 7 -284 294 -213 185 -284 b -36 -283 -8 -284 -20 -284 l -36 -119 b -8 -120 -25 -120 -17 -120 b 84 -34 60 -120 84 -91 l 84 758 m 188 855 b 75 962 126 855 75 903 b 188 1068 75 1020 126 1068 b 302 962 251 1068 302 1020 b 188 855 302 903 251 855 "},"k":{"ha":808,"x_min":0,"x_max":0,"o":"m 84 1010 l 294 1010 l 294 470 l 305 470 l 548 758 l 789 758 l 508 430 l 803 0 l 557 0 l 351 305 l 294 241 l 294 0 l 84 0 "},"l":{"ha":378,"x_min":0,"x_max":0,"o":"m 294 0 l 84 0 l 84 1010 l 294 1010 "},"m":{"ha":1267,"x_min":0,"x_max":0,"o":"m 84 758 l 284 758 l 284 624 l 293 624 b 504 767 325 713 402 767 b 710 624 608 767 686 712 l 718 624 b 946 767 749 711 835 767 b 1185 509 1087 767 1185 674 l 1185 0 l 975 0 l 975 468 b 858 594 975 552 925 594 b 736 463 781 594 736 541 l 736 0 l 533 0 l 533 472 b 417 594 533 547 486 594 b 294 455 347 594 294 539 l 294 0 l 84 0 "},"n":{"ha":864,"x_min":0,"x_max":0,"o":"m 294 0 l 84 0 l 84 758 l 284 758 l 284 624 l 293 624 b 521 767 327 712 408 767 b 782 482 679 767 782 659 l 782 0 l 572 0 l 572 445 b 437 593 573 538 522 593 b 294 438 353 593 294 536 "},"o":{"ha":852,"x_min":0,"x_max":0,"o":"m 426 -15 b 53 376 196 -15 53 143 b 426 767 53 611 196 767 b 799 376 656 767 799 611 b 426 -15 799 143 656 -15 m 427 148 b 585 377 531 148 585 245 b 427 607 585 509 531 607 b 267 377 321 607 267 509 b 427 148 267 245 321 148 "},"ö":{"ha":852,"x_min":0,"x_max":0,"o":"m 426 -15 b 53 376 196 -15 53 143 b 426 767 53 611 196 767 b 799 376 656 767 799 611 b 426 -15 799 143 656 -15 m 427 148 b 585 377 531 148 585 245 b 427 607 585 509 531 607 b 267 377 321 607 267 509 b 427 148 267 245 321 148 m 276 861 b 172 962 219 861 172 907 b 276 1062 172 1017 219 1062 b 378 962 333 1062 378 1017 b 276 861 378 907 333 861 m 578 861 b 474 962 521 861 474 907 b 578 1062 474 1017 521 1062 b 680 962 635 1062 680 1017 b 578 861 680 907 635 861 "},"p":{"ha":878,"x_min":0,"x_max":0,"o":"m 84 758 l 291 758 l 291 630 l 300 630 b 516 767 328 692 389 767 b 823 378 682 767 823 638 b 515 -12 823 124 688 -12 b 300 121 393 -12 329 58 l 294 121 l 294 -284 l 84 -284 m 290 379 b 449 155 290 244 348 155 b 608 379 552 155 608 247 b 449 600 608 510 553 600 b 290 379 347 600 290 514 "},"q":{"ha":878,"x_min":0,"x_max":0,"o":"m 584 121 l 578 121 b 363 -12 549 58 485 -12 b 56 378 190 -12 56 124 b 363 767 56 638 196 767 b 578 630 489 767 550 692 l 587 630 l 587 758 l 794 758 l 794 -284 l 584 -284 m 430 155 b 589 379 531 155 589 244 b 430 600 589 514 532 600 b 270 379 326 600 270 510 b 430 155 270 247 327 155 "},"r":{"ha":568,"x_min":0,"x_max":0,"o":"m 84 758 l 288 758 l 288 625 l 295 625 b 477 768 323 719 393 768 b 544 761 499 768 525 765 l 544 575 b 455 586 524 581 484 586 b 294 429 362 586 294 522 l 294 0 l 84 0 "},"s":{"ha":780,"x_min":0,"x_max":0,"o":"m 522 530 b 395 618 511 579 468 618 b 279 544 330 618 279 589 b 375 468 279 507 305 483 l 512 440 b 731 235 659 410 731 344 b 394 -15 731 85 590 -15 b 50 219 193 -15 70 74 l 257 230 b 395 137 270 169 320 137 b 518 214 468 137 517 169 b 421 289 517 252 487 276 l 290 315 b 71 532 142 345 70 418 b 392 767 70 678 198 767 b 714 542 583 767 695 681 "},"t":{"ha":540,"x_min":0,"x_max":0,"o":"m 487 600 l 344 600 l 344 233 b 415 159 344 175 373 159 b 468 166 435 159 457 164 l 501 9 b 387 -10 479 2 441 -8 b 134 205 234 -17 133 57 l 134 600 l 31 600 l 31 758 l 134 758 l 134 939 l 344 939 l 344 758 l 487 758 "},"u":{"ha":864,"x_min":0,"x_max":0,"o":"m 570 758 l 780 758 l 780 0 l 578 0 l 578 138 l 570 138 b 340 -10 536 49 454 -10 b 84 275 188 -10 84 98 l 84 758 l 294 758 l 294 313 b 425 168 294 223 346 168 b 570 323 501 168 570 221 "},"ü":{"ha":864,"x_min":0,"x_max":0,"o":"m 570 758 l 780 758 l 780 0 l 578 0 l 578 138 l 570 138 b 340 -10 536 49 454 -10 b 84 275 188 -10 84 98 l 84 758 l 294 758 l 294 313 b 425 168 294 223 346 168 b 570 323 501 168 570 221 m 283 861 b 179 962 226 861 179 907 b 283 1062 179 1017 226 1062 b 385 962 340 1062 385 1017 b 283 861 385 907 340 861 m 584 861 b 481 962 528 861 481 907 b 584 1062 481 1017 528 1062 b 687 962 642 1062 687 1017 b 584 861 687 907 642 861 "},"v":{"ha":814,"x_min":0,"x_max":0,"o":"m 525 0 l 289 0 l 24 758 l 246 758 l 403 216 l 411 216 l 568 758 l 790 758 "},"w":{"ha":1181,"x_min":0,"x_max":0,"o":"m 27 758 l 240 758 l 357 249 l 364 249 l 486 758 l 695 758 l 819 252 l 826 252 l 941 758 l 1153 758 l 947 0 l 725 0 l 595 476 l 585 476 l 455 0 l 233 0 "},"x":{"ha":797,"x_min":0,"x_max":0,"o":"m 399 493 l 541 758 l 757 758 l 537 379 l 763 0 l 548 0 l 399 262 l 252 0 l 35 0 l 259 379 l 42 758 l 259 758 "},"y":{"ha":814,"x_min":0,"x_max":0,"o":"m 214 -284 b 81 -262 160 -284 111 -275 l 129 -106 b 283 -54 203 -128 255 -125 l 295 -22 l 24 758 l 245 758 l 401 201 l 409 201 l 568 758 l 790 758 l 496 -82 b 214 -284 453 -204 370 -284 "},"z":{"ha":794,"x_min":0,"x_max":0,"o":"m 80 125 l 451 584 l 451 590 l 93 590 l 93 758 l 704 758 l 704 621 l 356 173 l 356 168 l 717 168 l 717 0 l 80 0 "},"$":{"ha":909,"x_min":0,"x_max":0,"o":"m 421 -13 b 55 317 200 -1 60 111 l 262 317 b 421 167 268 228 330 178 l 421 427 l 357 443 b 82 718 186 484 81 569 b 421 1022 81 889 222 1007 l 421 1136 l 502 1136 l 502 1023 b 840 720 706 1010 837 889 l 636 720 b 502 843 629 788 581 833 l 502 597 l 551 585 b 854 289 727 546 854 457 b 502 -13 854 114 725 -1 l 502 -126 l 421 -126 m 502 168 b 639 289 586 179 638 225 b 502 406 638 350 590 381 l 502 168 m 421 842 b 301 732 343 832 301 788 b 421 618 299 671 352 638 "},"£":{"ha":933,"x_min":0,"x_max":0,"o":"m 98 0 l 98 176 l 162 176 b 213 293 205 185 215 241 l 209 402 l 95 402 l 95 570 l 204 570 l 198 725 b 514 1024 191 917 330 1024 b 834 732 720 1024 840 903 l 634 738 b 518 853 636 822 581 853 b 408 725 456 853 408 811 l 414 570 l 636 570 l 636 402 l 421 402 l 424 305 b 385 176 426 252 414 210 l 832 176 l 832 0 "},"€":{"ha":953,"x_min":0,"x_max":0,"o":"m 700 554 l 383 554 b 382 504 382 539 382 522 b 383 456 382 487 382 471 l 654 456 l 601 345 l 400 345 b 608 177 434 228 508 177 b 794 244 694 177 758 218 l 874 75 b 608 -14 802 16 709 -14 b 183 345 395 -14 233 116 l 40 345 l 80 456 l 169 456 b 167 504 168 472 167 488 b 169 554 167 521 168 538 l 40 554 l 80 662 l 183 662 b 608 1024 233 892 395 1024 b 877 932 713 1024 804 991 l 798 763 b 608 834 759 791 695 834 b 400 662 508 834 434 780 l 749 662 "},"&":{"ha":936,"x_min":0,"x_max":0,"o":"m 394 -15 b 56 268 183 -15 56 109 b 240 532 56 385 130 457 b 144 764 187 599 144 674 b 419 1023 144 910 254 1023 b 682 785 581 1023 682 914 b 547 552 682 690 632 613 l 488 509 l 655 318 b 698 493 682 368 698 427 l 872 493 b 780 174 872 356 836 249 l 932 0 l 713 0 l 652 68 b 394 -15 578 10 482 -15 m 347 407 l 341 403 b 259 280 286 363 259 319 b 404 154 259 208 316 154 b 539 194 450 154 496 168 m 440 664 b 513 773 490 696 513 731 b 421 854 513 813 480 855 b 324 761 362 854 324 811 b 387 629 324 719 350 677 "},"!":{"ha":451,"x_min":0,"x_max":0,"o":"m 316 303 l 135 303 l 115 1010 l 335 1010 m 225 -13 b 107 106 160 -13 107 40 b 225 223 107 170 160 223 b 344 106 289 223 343 170 b 225 -13 343 40 289 -13 "},"?":{"ha":781,"x_min":0,"x_max":0,"o":"m 264 320 b 394 597 265 492 311 545 b 502 743 455 636 502 679 b 381 856 502 812 448 856 b 254 733 317 856 257 813 l 53 733 b 382 1024 57 930 203 1024 b 717 751 578 1024 717 923 b 565 508 717 635 657 562 b 451 320 487 461 452 416 l 451 303 l 264 303 m 362 -13 b 243 106 296 -13 243 40 b 362 223 243 170 296 223 b 480 106 425 223 479 170 b 362 -13 479 40 425 -13 "},"(":{"ha":568,"x_min":0,"x_max":0,"o":"m 130 405 b 329 1029 130 650 195 853 l 530 1029 b 349 405 427 899 349 638 b 530 -219 349 171 427 -89 l 329 -219 b 130 405 195 -44 130 160 "},")":{"ha":568,"x_min":0,"x_max":0,"o":"m 438 405 b 239 -219 438 160 373 -43 l 38 -219 b 219 405 141 -89 219 172 b 38 1029 219 639 141 899 l 239 1029 b 438 405 373 854 438 650 "},"[":{"ha":568,"x_min":0,"x_max":0,"o":"m 147 1029 l 536 1029 l 536 872 l 350 872 l 350 -62 l 536 -62 l 536 -219 l 147 -219 "},"]":{"ha":568,"x_min":0,"x_max":0,"o":"m 421 -219 l 32 -219 l 32 -62 l 218 -62 l 218 872 l 32 872 l 32 1029 l 421 1029 "},"{":{"ha":568,"x_min":0,"x_max":0,"o":"m 536 -219 b 194 57 337 -219 194 -186 l 194 166 b 43 310 194 267 156 310 l 43 500 b 194 644 156 500 194 543 l 194 753 b 536 1029 194 996 337 1029 l 536 872 b 396 731 419 872 396 827 l 396 587 b 220 415 396 512 363 444 l 220 395 b 396 222 363 366 396 298 l 396 78 b 536 -62 396 -17 419 -62 l 536 -219 "},"}":{"ha":568,"x_min":0,"x_max":0,"o":"m 32 1029 b 374 753 231 1029 374 996 l 374 644 b 525 500 374 543 412 500 l 525 310 b 374 166 412 310 374 267 l 374 57 b 32 -219 374 -186 231 -219 l 32 -62 b 173 78 149 -62 173 -17 l 173 222 b 348 395 173 298 205 366 l 348 415 b 173 588 205 444 173 512 l 173 732 b 32 872 173 827 149 872 l 32 1029 "},"#":{"ha":902,"x_min":0,"x_max":0,"o":"m 508 251 l 310 251 l 269 0 l 111 0 l 152 251 l 14 251 l 40 408 l 179 408 l 210 602 l 72 602 l 99 760 l 236 760 l 277 1010 l 435 1010 l 394 760 l 591 760 l 632 1010 l 790 1010 l 749 760 l 888 760 l 861 602 l 723 602 l 691 408 l 830 408 l 803 251 l 665 251 l 624 0 l 467 0 m 534 408 l 565 602 l 368 602 l 336 408 "},"/":{"ha":542,"x_min":0,"x_max":0,"o":"m 198 -152 l 17 -152 l 343 1057 l 524 1057 "},"\\":{"ha":542,"x_min":0,"x_max":0,"o":"m 17 1057 l 198 1057 l 524 -152 l 343 -152 "},"-":{"ha":651,"x_min":0,"x_max":0,"o":"m 556 331 l 95 331 l 95 498 l 556 498 "},"'":{"ha":290,"x_min":0,"x_max":0,"o":"m 219 626 l 69 626 l 69 1010 l 219 1010 "},"\"":{"ha":545,"x_min":0,"x_max":0,"o":"m 219 626 l 69 626 l 69 1010 l 219 1010 m 474 626 l 324 626 l 324 1010 l 474 1010 "},",":{"ha":421,"x_min":0,"x_max":0,"o":"m 307 84 b 214 -247 293 -47 237 -187 l 77 -247 b 136 83 92 -189 130 -51 l 139 138 l 312 138 "},".":{"ha":413,"x_min":0,"x_max":0,"o":"m 207 -13 b 88 106 142 -13 88 40 b 207 223 88 170 142 223 b 325 106 270 223 325 170 b 207 -13 325 40 270 -13 "},":":{"ha":413,"x_min":0,"x_max":0,"o":"m 207 517 b 88 636 142 517 88 570 b 207 753 88 700 142 753 b 325 636 270 753 325 700 b 207 517 325 570 270 517 m 207 -13 b 88 106 142 -13 88 40 b 207 223 88 170 142 223 b 325 106 270 223 325 170 b 207 -13 325 40 270 -13 "},";":{"ha":421,"x_min":0,"x_max":0,"o":"m 307 84 b 214 -247 293 -47 237 -187 l 77 -247 b 136 83 92 -189 130 -51 l 139 138 l 312 138 m 224 517 b 106 636 159 517 106 570 b 224 753 106 700 159 753 b 343 636 288 753 342 700 b 224 517 342 570 288 517 "},"<":{"ha":944,"x_min":0,"x_max":0,"o":"m 125 491 l 819 797 l 819 597 l 350 408 l 350 400 l 819 211 l 819 11 l 125 317 "},">":{"ha":944,"x_min":0,"x_max":0,"o":"m 125 11 l 125 211 l 594 400 l 594 408 l 125 597 l 125 797 l 819 491 l 819 317 "},"=":{"ha":944,"x_min":0,"x_max":0,"o":"m 131 328 l 812 328 l 812 153 l 131 153 m 131 655 l 812 655 l 812 480 l 131 480 "},"+":{"ha":944,"x_min":0,"x_max":0,"o":"m 384 316 l 123 316 l 123 492 l 384 492 l 384 753 l 560 753 l 560 492 l 821 492 l 821 316 l 560 316 l 560 55 l 384 55 "},"~":{"ha":944,"x_min":0,"x_max":0,"o":"m 106 273 b 319 562 100 460 185 562 b 504 476 381 562 432 540 b 598 425 542 443 563 425 b 677 540 644 425 679 460 l 837 540 b 624 250 844 353 755 250 b 438 336 559 250 508 275 b 346 387 398 372 380 387 b 267 273 300 387 265 355 l 106 273 "},"_":{"ha":662,"x_min":0,"x_max":0,"o":"m 662 -159 l -1 -159 l -1 0 l 662 0 "},"^":{"ha":677,"x_min":0,"x_max":0,"o":"m 254 988 l 423 988 l 631 552 l 472 552 l 343 847 l 334 847 l 206 552 l 46 552 "},"*":{"ha":784,"x_min":0,"x_max":0,"o":"m 338 633 l 179 526 l 112 642 l 285 726 l 112 810 l 179 926 l 338 819 l 326 1010 l 459 1010 l 446 819 l 606 926 l 672 810 l 500 726 l 672 642 l 606 526 l 446 633 l 459 442 l 326 442 "},"°":{"ha":638,"x_min":0,"x_max":0,"o":"m 319 532 b 77 774 185 532 77 641 b 319 1017 77 908 185 1017 b 561 774 453 1017 561 908 b 319 532 561 641 453 532 m 319 672 b 421 774 376 672 421 718 b 319 877 421 831 376 877 b 217 774 263 877 217 831 b 319 672 217 718 263 672 "},"§":{"ha":824,"x_min":0,"x_max":0,"o":"m 508 760 b 404 848 508 810 473 848 b 307 778 352 848 307 826 b 400 680 307 731 361 696 l 589 593 b 745 365 642 569 758 509 b 621 228 738 283 665 241 l 619 226 b 703 42 674 177 703 117 b 411 -204 703 -113 577 -204 b 104 67 229 -204 104 -98 l 290 67 b 414 -27 290 5 337 -31 b 516 42 464 -26 516 -6 b 425 141 516 94 462 122 l 236 226 b 79 456 182 250 67 311 b 204 594 86 539 154 580 l 204 595 b 121 778 154 644 121 702 b 404 1024 121 920 238 1024 b 692 760 578 1024 692 912 m 573 354 b 493 443 578 388 550 419 l 328 518 b 251 467 293 534 255 508 b 331 376 246 432 276 400 l 496 303 b 573 354 526 289 568 313 "},"%":{"ha":1194,"x_min":0,"x_max":0,"o":"m 635 243 b 857 467 635 364 715 467 b 1080 243 1002 467 1080 365 l 1080 189 b 857 -35 1080 68 1000 -35 b 635 189 713 -35 635 68 m 116 821 b 338 1045 116 943 197 1045 b 561 821 484 1045 561 943 l 561 767 b 338 544 561 645 482 544 b 116 767 194 544 116 646 m 876 1010 l 1005 1010 l 311 0 l 182 0 m 778 189 b 857 92 778 143 797 92 b 935 189 917 92 935 141 l 935 243 b 857 341 935 291 919 341 b 778 243 798 341 778 291 m 261 767 b 338 670 261 719 280 670 b 417 767 399 670 417 719 l 417 821 b 338 919 417 869 400 919 b 261 821 280 919 261 868 "},"`":{"ha":690,"x_min":0,"x_max":0,"o":"m 196 1080 l 390 1080 l 495 855 l 346 855 "}}}
